<?xml version="1.0" standalone="no"?><!DOCTYPE svg PUBLIC "-//W3C//DTD SVG 1.1//EN" "http://www.w3.org/Graphics/SVG/1.1/DTD/svg11.dtd"><svg t="1636713918395" class="icon" viewBox="0 0 1024 1024" version="1.1" xmlns="http://www.w3.org/2000/svg" p-id="3173" width="128" height="128" xmlns:xlink="http://www.w3.org/1999/xlink"><defs><style type="text/css"></style></defs><path d="M950.297 818.915c-5.097-7.728-15.514-9.84-23.251-4.762l-13.805 9.12-82.042-130.925c-0.355-0.566-0.797-1.008-1.191-1.526l10.358-6.835c0.183-0.115 0.384-0.183 0.566-0.297s0.317-0.278 0.499-0.403l39.082-25.805c7.776-5.097 9.908-15.523 4.771-23.251-5.097-7.728-15.523-9.859-23.251-4.762l-25.613 16.915-278.525-421.901c-3.226-4.915-8.832-7.766-14.755-7.507l-128.803 5.549-99.417-150.624c-5.136-7.728-15.562-9.869-23.28-4.771-3.869 2.572-6.308 6.451-7.171 10.666s-0.144 8.736 2.4 12.595l99.427 150.614-55.709 116.294c-0.614 1.248-1.037 2.534-1.315 3.888-0.874 4.291-0.048 8.861 2.4 12.605l278.534 421.92-25.603 16.906c-3.831 2.572-6.326 6.451-7.191 10.646-0.864 4.214-0.096 8.755 2.429 12.586 5.126 7.786 15.552 9.897 23.289 4.781l39.293-25.939c0.115-0.067 0.221-0.106 0.336-0.183s0.202-0.183 0.308-0.249l20.659-13.642c0.509 2.784 1.488 5.491 3.063 7.987l78.643 125.434-16.531 10.915c-3.84 2.592-6.336 6.471-7.191 10.666-0.874 4.205-0.106 8.774 2.419 12.614 5.097 7.709 15.543 9.84 23.261 4.743l198.144-130.819c7.737-5.097 9.869-15.523 4.762-23.242zM506.278 358.134c-2.544-3.897-3.274-8.429-2.419-12.643 0.864-4.205 3.322-8.093 7.2-10.656l39.629-26.169c7.747-5.097 18.172-2.976 23.261 4.762 5.107 7.737 2.976 18.154-4.752 23.271l-39.648 26.151c-7.747 5.136-18.134 3.005-23.271-4.714zM561.968 420.927c-2.534-3.878-3.303-8.419-2.429-12.614 0.854-4.224 3.351-8.103 7.181-10.675l39.648-26.16c7.728-5.126 18.163-2.986 23.261 4.762 5.097 7.718 2.966 18.134-4.762 23.251l-39.648 26.179c-7.737 5.117-18.125 2.995-23.251-4.743zM621.094 501.558c-7.699 5.136-18.096 3.014-23.251-4.743-2.525-3.869-3.264-8.409-2.4-12.605 0.864-4.205 3.322-8.083 7.162-10.666l39.648-26.169c7.718-5.107 18.144-2.986 23.242 4.752 5.097 7.737 2.976 18.183-4.771 23.261l-39.629 26.169zM653.523 559.659c-2.525-3.897-3.264-8.438-2.4-12.634 0.874-4.214 3.331-8.093 7.162-10.675l39.648-26.151c7.757-5.097 18.144-2.966 23.251 4.762 5.136 7.737 3.005 18.154-4.762 23.251l-39.609 26.151c-7.748 5.155-18.144 3.014-23.289-4.704zM689.629 635.814c-2.544-3.878-3.254-8.419-2.391-12.614 0.854-4.214 3.312-8.083 7.162-10.666l39.303-25.968c7.766-5.078 18.183-2.947 23.289 4.781 5.097 7.728 2.966 18.154-4.762 23.251l-39.331 25.929c-7.757 5.194-18.144 3.034-23.271-4.714zM703.28 783.27c-1.383-2.198-3.111-3.965-5.011-5.452l95.117-62.803c0.413 0.912 0.788 1.824 1.334 2.688l81.514 130.003-93.744 61.882-79.209-126.317z" p-id="3174" fill="#60b1fd"></path><path d="M258.886 153.078l-10.723-10.704-10.886 10.512c-43.248 41.798-60.835 84.442-48.269 117.101 8.285 21.456 28.656 34.781 54.413 35.606 24.48 0.788 45.581-12.336 55.046-34.224 11.52-26.572 7.152-71.597-39.581-118.291z" p-id="3175" fill="#60b1fd"></path><path d="M375.68 495.29l-223.718-2.294c-21.504-0.211-39.158 17.088-39.379 38.583l-0.346 34.118c-0.231 21.485 17.078 39.129 38.583 39.36l223.718 2.285c21.494 0.221 39.168-17.059 39.389-38.572l0.346-34.099c0.211-21.494-17.097-39.149-38.592-39.379z" p-id="3176" fill="#60b1fd"></path><path d="M374.442 615.962l-223.718-2.285c-21.504-0.221-39.168 17.078-39.389 38.572l-2.468 240.96c-0.221 21.504 17.088 39.168 38.583 39.398l223.718 2.266c21.504 0.24 39.168-17.059 39.389-38.554l2.477-240.979c0.211-21.494-17.088-39.158-38.592-39.379M329.235 792.947c-20.496 18.134-42.221 39.245-53.885 50.602-3.283 3.168-5.751 5.587-7.181 6.922l-9.053 8.534-8.889-8.717c-1.459-1.402-4.051-4.071-7.497-7.574-11.501-11.664-32.928-33.36-52.252-51.188-17.078-15.773-24-39.754-17.597-61.104 5.635-18.864 20.899-32.045 40.838-35.328 3.408-0.566 6.826-0.845 10.147-0.806 15.293 0.173 27.84 6.788 36.893 15.283 9.226-8.304 21.907-14.659 37.209-14.515 3.322 0.038 6.729 0.374 10.137 0.998 19.814 3.677 34.781 17.174 40.023 36.057 5.952 21.494-1.459 45.379-18.893 60.835z" p-id="3177" fill="#60b1fd"></path></svg>