<?xml version="1.0" standalone="no"?><!DOCTYPE svg PUBLIC "-//W3C//DTD SVG 1.1//EN" "http://www.w3.org/Graphics/SVG/1.1/DTD/svg11.dtd"><svg t="1637378217108" class="icon" viewBox="0 0 1048 1024" version="1.1" xmlns="http://www.w3.org/2000/svg" p-id="2329" width="65.5" height="64" xmlns:xlink="http://www.w3.org/1999/xlink"><defs><style type="text/css"></style></defs><path d="M334.571747 570.128513a14.452891 14.452891 0 0 0 14.452891 14.70645h125.638727c7.987124 0 14.452891-6.592547 14.452891-14.83323V528.671536c0-8.240683-6.338987-14.83323-14.452891-14.83323h-125.638727c-7.987124 0-14.452891 6.592547-14.452891 14.706451v41.583756zM474.663365 233.78185c7.987124 0 14.452891-6.592547 14.452891-14.83323V177.491643c0-8.240683-6.338987-14.83323-14.452891-14.83323h-125.638727c-7.987124 0-14.452891 6.592547-14.452891 14.70645v41.456977a14.452891 14.452891 0 0 0 14.452891 14.70645h125.638727z" p-id="2330" fill="#ffffff"></path><path d="M464.013867 985.966077c0-22.440015 2.535595-44.372911 6.972886-65.798688h-107.382444v-100.155999h-112.453634v100.155999H87.731584c-9.381701 0-16.734926-7.480005-16.734927-16.861706V87.985143c0-4.437291 1.648137-8.874582 4.81763-12.044076s7.480005-4.94441 11.917297-4.94441h439.291816c4.437291 0 8.747802 1.774916 11.917296 4.94441s4.94441 7.606785 4.81763 11.917296v347.376501a101.246304 101.246304 0 0 1 68.080723-26.243407c1.014238 0 1.901696 0 2.915934 0.12678v-50.711898a16.89974 16.89974 0 0 1 16.734927-16.861706h272.069332c4.437291 0 8.747802 1.774916 11.790517 4.94441 3.169494 3.169494 4.94441 7.480005 4.94441 11.917296v49.063761c27.891544 17.749164 52.106475 40.696298 70.996657 67.827164V305.919525c0-19.524081-15.847468-35.371549-35.244769-35.371549H614.628204V35.498329A35.498329 35.498329 0 0 0 579.256655 0H35.371549A35.574396 35.574396 0 0 0 0 35.498329v920.167388a35.498329 35.498329 0 0 0 35.371549 35.498329h428.895877c-0.12678-1.774916-0.253559-3.549833-0.253559-5.197969z" p-id="2331" fill="#ffffff"></path><path d="M334.571747 394.665346a14.452891 14.452891 0 0 0 14.452891 14.70645h125.638727c7.987124 0 14.452891-6.592547 14.452891-14.83323v-41.456976c0-8.240683-6.338987-14.83323-14.452891-14.83323h-125.638727c-7.987124 0-14.452891 6.592547-14.452891 14.70645v41.710536zM334.571747 745.71846c0 3.930172 1.521357 7.606785 4.183732 10.395939 2.662375 2.789154 6.465767 4.310511 10.269159 4.310511h125.638727c7.987124 0 14.452891-6.592547 14.452891-14.83323v-41.456977c0-8.240683-6.338987-14.83323-14.452891-14.83323h-125.638727c-7.987124 0-14.452891 6.592547-14.452891 14.706451v41.710536zM280.056457 353.208369c0-8.240683-6.338987-14.83323-14.452891-14.83323h-125.638728c-7.987124 0-14.452891 6.592547-14.45289 14.706451v41.456976c0 3.803392 1.521357 7.606785 4.183731 10.395939 2.662375 2.789154 6.465767 4.310511 10.269159 4.310512h125.638728c7.987124 0 14.452891-6.592547 14.452891-14.83323v-41.203418zM280.056457 528.671536c0-8.240683-6.338987-14.83323-14.452891-14.83323h-125.638728c-7.987124 0-14.452891 6.592547-14.45289 14.706451v41.456976c0 3.803392 1.521357 7.606785 4.183731 10.395939 2.662375 2.789154 6.465767 4.310511 10.269159 4.310512h125.638728c7.987124 0 14.452891-6.592547 14.452891-14.83323V528.671536zM280.056457 177.618423c0-8.240683-6.338987-14.83323-14.452891-14.83323h-125.638728c-7.987124 0-14.452891 6.592547-14.45289 14.83323v41.456976c0 3.803392 1.521357 7.606785 4.183731 10.395939 2.789154 2.789154 6.338987 4.310511 10.269159 4.310512h125.638728c7.987124 0 14.452891-6.592547 14.452891-14.83323v-41.330197zM139.964838 689.428253c-7.987124 0-14.452891 6.592547-14.45289 14.70645v41.456977c0 3.803392 1.521357 7.606785 4.183731 10.395939 2.662375 2.789154 6.465767 4.310511 10.269159 4.310511h125.638728c7.987124 0 14.452891-6.592547 14.452891-14.83323v-41.456976c0-8.240683-6.338987-14.83323-14.452891-14.83323h-125.638728z" p-id="2332" fill="#ffffff"></path><path d="M787.682555 432.065371c-38.921382 0-75.180389 12.170856-104.973628 32.835954 0 0-0.12678 0-0.12678 0.126779-16.861706 10.522719-46.781726 8.621023-68.714622 7.353226-20.918658-1.141018-39.048161 14.70645-40.315959 35.625108a38.109991 38.109991 0 0 0 35.625109 40.315959l6.846106 0.380339c-8.367463 21.172217-13.185093 44.119351-13.185094 68.207503 0 55.402749 24.595271 104.973629 63.389873 138.9506-82.406834 43.612232-138.823821 130.329578-138.823821 230.105238 0 21.045438 16.988486 38.033923 38.033923 38.033923s38.033923-16.988486 38.033924-38.033923c0-101.550576 82.660394-184.210969 184.337749-184.21097 101.930915 0 184.718088-82.913953 184.718089-184.718088s-82.913953-184.971648-184.844869-184.971648z m0 293.495109c-59.966819 0-108.650241-48.810202-108.650241-108.650241s48.810202-108.650241 108.650241-108.650241 108.650241 48.810202 108.650242 108.650241-48.683422 108.650241-108.650242 108.650241zM987.867773 819.377492a38.148025 38.148025 0 0 0-53.627832-4.94441 38.148025 38.148025 0 0 0-4.94441 53.627832c27.511205 32.962734 42.597994 74.80005 42.597994 117.905163 0 21.045438 16.988486 38.033923 38.033923 38.033923s38.033923-16.988486 38.033924-38.033923c0.12678-60.854278-21.298997-119.933639-60.093599-166.588585z" p-id="2333" fill="#ffffff"></path></svg>