<?xml version="1.0" standalone="no"?><!DOCTYPE svg PUBLIC "-//W3C//DTD SVG 1.1//EN" "http://www.w3.org/Graphics/SVG/1.1/DTD/svg11.dtd"><svg t="1636688439057" class="icon" viewBox="0 0 1024 1024" version="1.1" xmlns="http://www.w3.org/2000/svg" p-id="1681" width="32" height="32" xmlns:xlink="http://www.w3.org/1999/xlink"><defs><style type="text/css"></style></defs><path d="M499.8 62.1c-159.2 0-288.2 129-288.2 288.2s129 288.2 288.2 288.2S788 509.5 788 350.3 659 62.1 499.8 62.1z m0 494.5c-113.9 0-206.3-92.4-206.3-206.3S385.9 144 499.8 144s206.3 92.4 206.3 206.3-92.4 206.3-206.3 206.3z" fill="#60b1fd" p-id="1682"></path><path d="M168.6 932.1C188 766.8 328.5 638.5 499 638.5s311 128.3 330.5 293.6h81.9c-19.8-210.4-196.8-375-412.4-375s-392.6 164.6-412.4 375h82z" fill="#60b1fd" p-id="1683"></path><path d="M870.5 933.3m-40.9 0a40.9 40.9 0 1 0 81.8 0 40.9 40.9 0 1 0-81.8 0Z" fill="#60b1fd" p-id="1684"></path><path d="M127.6 933.3m-40.9 0a40.9 40.9 0 1 0 81.8 0 40.9 40.9 0 1 0-81.8 0Z" fill="#60b1fd" p-id="1685"></path></svg>