<?xml version="1.0" standalone="no"?><!DOCTYPE svg PUBLIC "-//W3C//DTD SVG 1.1//EN" "http://www.w3.org/Graphics/SVG/1.1/DTD/svg11.dtd"><svg t="1636709833092" class="icon" viewBox="0 0 1024 1024" version="1.1" xmlns="http://www.w3.org/2000/svg" p-id="80429" width="64" height="64" xmlns:xlink="http://www.w3.org/1999/xlink"><defs><style type="text/css"></style></defs><path d="M902.656 469.674667c1.792-22.272-3.413333-44.544-14.848-63.744a66.901333 66.901333 0 0 0-54.954667-24.405334H637.184V172.885333a95.829333 95.829333 0 0 0-19.626667-64.256 79.616 79.616 0 0 0-55.722666-21.504H185.088a89.173333 89.173333 0 0 0-55.978667 19.114667 74.325333 74.325333 0 0 0-22.613333 57.258667v773.12h796.501333c-0.256-155.562667-0.341333-311.210667-0.341333-466.944zM584.106667 227.498667v660.309333H477.952c-4.778667-35.328 0-71.168-2.133333-106.24H263.424v106.24H157.184V193.536a51.029333 51.029333 0 0 1 30.805333-48.64 110.933333 110.933333 0 0 1 42.666667-4.437333h297.984c20.394667-0.256 39.253333 10.922667 48.810667 29.013333 6.656 18.517333 9.130667 38.4 7.168 58.026667h-0.512z m265.472 660.48h-79.616V781.909333H716.8v106.24h-79.701333V433.834667h157.696c21.248 1.024 40.192 13.482667 49.408 32.597333 4.437333 13.312 6.144 27.477333 5.034666 41.472-0.256 126.890667 0.256 253.44 0 380.16h0.256zM265.557333 569.6H477.866667V516.266667H265.386667l-0.682667 52.053333 0.768 1.109333z m0-215.04h79.616v79.616h53.162667v-79.616h77.994667V301.226667h-79.616v-79.616h-53.162667v79.616h-79.616c0.853333 17.408 1.28 34.730667 1.024 52.053333l0.597333 1.109333z m0 345.088H477.866667v-53.077333H265.386667l-0.682667 52.821333 0.768 0.256z m451.328 1.621333h53.077334v-53.162666h-53.077334v53.162666z m0-130.133333h53.077334V517.973333h-53.077334v53.077334z" p-id="80430" fill="#aac7f9"></path></svg>