<?xml version="1.0" standalone="no"?><!DOCTYPE svg PUBLIC "-//W3C//DTD SVG 1.1//EN" "http://www.w3.org/Graphics/SVG/1.1/DTD/svg11.dtd"><svg t="1636711673449" class="icon" viewBox="0 0 1024 1024" version="1.1" xmlns="http://www.w3.org/2000/svg" p-id="112490" width="64" height="64" xmlns:xlink="http://www.w3.org/1999/xlink"><defs><style type="text/css"></style></defs><path d="M682.666667 0H341.333333c-27.306667 0-51.2 23.893333-51.2 51.2v102.4c0 27.306667 23.893333 51.2 51.2 51.2h341.333334c27.306667 0 51.2-23.893333 51.2-51.2v-102.4C733.866667 23.893333 709.973333 0 682.666667 0z m-324.266667 170.666667V34.133333h34.133333v136.533334h-34.133333z m68.266667 0V34.133333h34.133333v136.533334h-34.133333z m68.266666 0V34.133333h34.133334v136.533334h-34.133334z m68.266667 0V34.133333h34.133333v136.533334h-34.133333z m68.266667 0V34.133333h34.133333v136.533334h-34.133333zM802.133333 546.133333h-580.266666v307.2h580.266666v-307.2zM614.4 716.8h-85.333333v85.333333c0 10.24-6.826667 17.066667-17.066667 17.066667s-17.066667-6.826667-17.066667-17.066667V716.8H409.6c-10.24 0-17.066667-6.826667-17.066667-17.066667s6.826667-17.066667 17.066667-17.066666h85.333333v-85.333334c0-10.24 6.826667-17.066667 17.066667-17.066666s17.066667 6.826667 17.066667 17.066666V682.666667H614.4c10.24 0 17.066667 6.826667 17.066667 17.066666s-6.826667 17.066667-17.066667 17.066667z" fill="#ffffff" p-id="112491"></path><path d="M665.6 204.8v-17.066667c0-10.24-6.826667-17.066667-17.066667-17.066666h-273.066666c-10.24 0-17.066667 6.826667-17.066667 17.066666V204.8h307.2zM802.133333 512v-68.266667c0-71.68-61.44-129.706667-136.533333-136.533333V238.933333h-307.2v68.266667c-75.093333 6.826667-136.533333 64.853333-136.533333 136.533333v68.266667h580.266666zM221.866667 887.466667v34.133333c0 58.026667 44.373333 102.4 102.4 102.4h375.466666c58.026667 0 102.4-44.373333 102.4-102.4v-34.133333h-580.266666z" fill="#ffffff" p-id="112492"></path></svg>