<?xml version="1.0" standalone="no"?><!DOCTYPE svg PUBLIC "-//W3C//DTD SVG 1.1//EN" "http://www.w3.org/Graphics/SVG/1.1/DTD/svg11.dtd"><svg t="1636709617802" class="icon" viewBox="0 0 1024 1024" version="1.1" xmlns="http://www.w3.org/2000/svg" p-id="79248" width="64" height="64" xmlns:xlink="http://www.w3.org/1999/xlink"><defs><style type="text/css"></style></defs><path d="M308.060504 156.611765c0-82.608403 65.398319-149.727731 146.285714-149.727731s146.285714 67.119328 146.285715 149.727731c0 82.608403-65.398319 149.727731-146.285715 149.727731s-146.285714-67.119328-146.285714-149.727731z m5.163025 478.440336V963.764706c0 29.257143 22.373109 51.630252 51.630253 51.630252 27.536134 0 51.630252-24.094118 51.630252-51.630252v-134.238656-10.32605c-1.721008-94.655462-70.561345-165.216807-103.260505-184.147899z m177.263866 184.147899V963.764706c0 29.257143 22.373109 51.630252 51.630252 51.630252 27.536134 0 51.630252-24.094118 51.630252-51.630252 0 0 1.721008-290.85042 1.721009-297.734454v-22.373109c-39.583193 25.815126-104.981513 104.981513-104.981513 175.542857z m92.934454-194.47395H328.712605c36.141176 22.373109 99.818487 70.561345 103.260504 158.332774h44.746219c5.163025-75.72437 68.840336-132.517647 106.702521-158.332774zM805.431933 567.932773c-77.445378-80.887395-261.593277-216.847059-278.803362-228.894118-10.32605-8.605042-18.931092-12.047059-29.257142-13.768067-13.768067-5.163025-29.257143-6.884034-44.746219-6.884033-17.210084 0-32.69916 3.442017-48.188235 8.605042-6.884034 1.721008-12.047059 5.163025-18.931093 8.605042-20.652101 12.047059-206.521008 153.169748-282.245378 232.336134-61.956303 63.677311 34.420168 161.77479 96.376471 98.097479 37.862185-39.583193 75.72437-77.445378 113.586554-117.028571v58.514285h280.52437v-60.235294c37.862185 39.583193 77.445378 79.166387 115.307563 118.74958 61.956303 63.677311 158.332773-34.420168 96.376471-98.097479zM679.798319 278.803361c-6.884034 5.163025-15.489076 13.768067-15.489075 13.768068s1.721008 3.442017 5.163025 6.884033l-44.746219 41.304202 1.721009 1.721008 49.909244-34.420168c3.442017 3.442017 5.163025 6.884034 6.884033 6.884034 1.721008 0 10.32605-6.884034 17.210084-12.047059 15.489076 10.32605 36.141176 8.605042 36.141177 8.605042L679.798319 240.941176c-1.721008 1.721008-6.884034 20.652101 0 37.862185z" p-id="79249" fill="#aac7f9"></path><path d="M927.623529 156.611765l13.768068-12.047059-56.793278-70.561345-13.768067 12.047059 18.931093 22.373109-22.37311 18.931093-27.536134-34.420168-10.326051 8.605042 10.326051 12.047059-160.053782 127.354621 56.793278 70.561345 156.611764-127.354622 10.326051 12.047059 10.32605-8.605042-27.536134-34.420168 22.373109-18.931093 18.931092 22.37311z m-44.746218 22.373109L788.221849 258.151261l-1.721009-1.721009-1.721008-1.721008-1.721008-1.721009-1.721009-1.721008-8.605042-10.326051-1.721008-1.721008-1.721009-1.721008-1.721008-1.721009-1.721009-1.721008-1.721008-1.721009-1.721008-1.721008-1.721009-1.721008-1.721008-1.721009-1.721009-6.884033-1.721008-1.721009-1.721008-1.721008-1.721009-1.721009-1.721008-1.721008-1.721009-1.721008-3.442016-5.163026-1.721009-1.721008-1.721008-1.721008 34.420168-27.536135 25.815126 30.978151 5.163025-5.163025-25.815126-30.978151 12.047059-10.32605 22.373109 27.536134 5.163025-5.163025L798.547899 154.890756l10.326051-8.605042 20.6521 24.094118 5.163026-5.163025-20.652101-24.094118 20.652101-17.210084 1.721008 1.721008 1.721008 1.721009 1.721009 1.721008 3.442017 3.442017 1.721008 1.721008 15.489076 17.210084 1.721008 3.442017 1.721008 1.721009 3.442017 5.163025 1.721009 1.721008 1.721008 1.721009 1.721009 1.721008 1.721008 1.721009 1.721008 1.721008 1.721009 1.721008 1.721008 1.721009 3.442017 5.163025z" p-id="79250" fill="#aac7f9"></path></svg>