<svg width="1159" height="915" xmlns="http://www.w3.org/2000/svg" xmlns:xlink="http://www.w3.org/1999/xlink" overflow="hidden"><defs><clipPath id="clip0"><rect x="85" y="174" width="1159" height="915"/></clipPath></defs><g clip-path="url(#clip0)" transform="translate(-85 -174)"><rect x="216.5" y="650.5" width="127" height="49" stroke="#000000" stroke-width="1.33333" stroke-miterlimit="8" fill="#FFFFFF"/><text font-family="DengXian,DengXian_MSFontService,sans-serif" font-weight="400" font-size="24" transform="translate(255.584 682)">居民</text><path d="M88.5001 688.5C88.5001 674.693 111.781 663.5 140.5 663.5 169.219 663.5 192.5 674.693 192.5 688.5 192.5 702.307 169.219 713.5 140.5 713.5 111.781 713.5 88.5001 702.307 88.5001 688.5Z" stroke="#000000" stroke-width="1.33333" stroke-miterlimit="8" fill="#FFFFFF" fill-rule="evenodd"/><text font-family="DengXian,DengXian_MSFontService,sans-serif" font-weight="400" font-size="19" transform="translate(121.247 682)">联系<tspan font-size="19" x="0" y="23">方式</tspan></text><path d="M167.5 758C167.5 744.469 190.781 733.5 219.5 733.5 248.219 733.5 271.5 744.469 271.5 758 271.5 771.531 248.219 782.5 219.5 782.5 190.781 782.5 167.5 771.531 167.5 758Z" stroke="#000000" stroke-width="1.33333" stroke-miterlimit="8" fill="#FFFFFF" fill-rule="evenodd"/><text font-family="DengXian,DengXian_MSFontService,sans-serif" font-weight="400" font-size="19" transform="translate(200.051 752)">现居<tspan font-size="19" x="0" y="23">地址</tspan></text><path d="M370.5 685.5C370.5 671.693 393.557 660.5 422 660.5 450.443 660.5 473.5 671.693 473.5 685.5 473.5 699.307 450.443 710.5 422 710.5 393.557 710.5 370.5 699.307 370.5 685.5Z" stroke="#000000" stroke-width="1.33333" stroke-miterlimit="8" fill="#FFFFFF" fill-rule="evenodd"/><text font-family="DengXian,DengXian_MSFontService,sans-serif" font-weight="400" font-size="19" transform="translate(402.815 680)">身份<tspan font-size="19" x="0" y="23">证号</tspan></text><path d="M300.5 758C300.5 744.469 323.781 733.5 352.5 733.5 381.219 733.5 404.5 744.469 404.5 758 404.5 771.531 381.219 782.5 352.5 782.5 323.781 782.5 300.5 771.531 300.5 758Z" stroke="#000000" stroke-width="1.33333" stroke-miterlimit="8" fill="#FFFFFF" fill-rule="evenodd"/><text font-family="DengXian,DengXian_MSFontService,sans-serif" font-weight="400" font-size="19" transform="translate(333.625 763)">备注</text><path d="M300.5 586C300.5 572.469 323.781 561.5 352.5 561.5 381.219 561.5 404.5 572.469 404.5 586 404.5 599.531 381.219 610.5 352.5 610.5 323.781 610.5 300.5 599.531 300.5 586Z" stroke="#000000" stroke-width="1.33333" stroke-miterlimit="8" fill="#FFFFFF" fill-rule="evenodd"/><text font-family="DengXian,DengXian_MSFontService,sans-serif" font-weight="400" font-size="19" transform="translate(333.625 591)">性别</text><path d="M167.5 586C167.5 572.469 190.781 561.5 219.5 561.5 248.219 561.5 271.5 572.469 271.5 586 271.5 599.531 248.219 610.5 219.5 610.5 190.781 610.5 167.5 599.531 167.5 586Z" stroke="#000000" stroke-width="1.33333" stroke-miterlimit="8" fill="#FFFFFF" fill-rule="evenodd"/><text font-family="DengXian,DengXian_MSFontService,sans-serif" font-weight="400" font-size="19" transform="translate(200.051 591)">姓名</text><path d="M219.5 610.5 280.367 650.185" stroke="#000000" stroke-width="1.33333" stroke-miterlimit="8" fill="#FFFFFF" fill-rule="evenodd"/><path d="M353.207 732.624 280.5 699.5" stroke="#000000" stroke-width="1.33333" stroke-miterlimit="8" fill="#FFFFFF" fill-rule="evenodd"/><path d="M0 0 72.7074 39.6851" stroke="#000000" stroke-width="1.33333" stroke-miterlimit="8" fill="#FFFFFF" fill-rule="evenodd" transform="matrix(-1 0 0 1 353.207 610.5)"/><path d="M0 0 24.3711 13.1447" stroke="#000000" stroke-width="1.33333" stroke-miterlimit="8" fill="#FFFFFF" fill-rule="evenodd" transform="matrix(1 0 0 -1 192.5 688.645)"/><path d="M343.5 675.5 370.098 685.985" stroke="#000000" stroke-width="1.33333" stroke-miterlimit="8" fill="#FFFFFF" fill-rule="evenodd"/><path d="M0 0 60.8666 33.1242" stroke="#000000" stroke-width="1.33333" stroke-miterlimit="8" fill="#FFFFFF" fill-rule="evenodd" transform="matrix(1 0 0 -1 219.5 732.624)"/><path d="M987.5 675 1051 650.5 1114.5 675 1051 699.5Z" stroke="#000000" stroke-width="1.33333" stroke-miterlimit="8" fill="#FFFFFF" fill-rule="evenodd"/><text font-family="DengXian,DengXian_MSFontService,sans-serif" font-weight="400" font-size="21" transform="translate(1029.08 682)">接种</text><path d="M849.5 659C849.5 645.469 875.691 634.5 908 634.5 940.309 634.5 966.5 645.469 966.5 659 966.5 672.531 940.309 683.5 908 683.5 875.691 683.5 849.5 672.531 849.5 659Z" stroke="#000000" stroke-width="1.33333" stroke-miterlimit="8" fill="#FFFFFF" fill-rule="evenodd"/><text font-family="DengXian,DengXian_MSFontService,sans-serif" font-weight="400" font-size="19" transform="translate(888.685 653)">接种<tspan font-size="19" x="0" y="23">单位</tspan></text><path d="M929.5 769C929.5 755.469 955.915 744.5 988.5 744.5 1021.08 744.5 1047.5 755.469 1047.5 769 1047.5 782.531 1021.08 793.5 988.5 793.5 955.915 793.5 929.5 782.531 929.5 769Z" stroke="#000000" stroke-width="1.33333" stroke-miterlimit="8" fill="#FFFFFF" fill-rule="evenodd"/><text font-family="DengXian,DengXian_MSFontService,sans-serif" font-weight="400" font-size="19" transform="translate(959.876 763)">接种疫<tspan font-size="19" x="0" y="23">苗名称</tspan></text><path d="M1090.5 769C1090.5 755.469 1113.56 744.5 1142 744.5 1170.44 744.5 1193.5 755.469 1193.5 769 1193.5 782.531 1170.44 793.5 1142 793.5 1113.56 793.5 1090.5 782.531 1090.5 769Z" stroke="#000000" stroke-width="1.33333" stroke-miterlimit="8" fill="#FFFFFF" fill-rule="evenodd"/><text font-family="DengXian,DengXian_MSFontService,sans-serif" font-weight="400" font-size="19" transform="translate(1122.8 763)">接种<tspan font-size="19" x="0" y="23">剂次</tspan></text><path d="M1139.5 659C1139.5 645.469 1162.56 634.5 1191 634.5 1219.44 634.5 1242.5 645.469 1242.5 659 1242.5 672.531 1219.44 683.5 1191 683.5 1162.56 683.5 1139.5 672.531 1139.5 659Z" stroke="#000000" stroke-width="1.33333" stroke-miterlimit="8" fill="#FFFFFF" fill-rule="evenodd"/><text font-family="DengXian,DengXian_MSFontService,sans-serif" font-weight="400" font-size="19" transform="translate(1171.79 653)">接种<tspan font-size="19" x="0" y="23">地点</tspan></text><path d="M998.5 576C998.5 562.469 1021.78 551.5 1050.5 551.5 1079.22 551.5 1102.5 562.469 1102.5 576 1102.5 589.531 1079.22 600.5 1050.5 600.5 1021.78 600.5 998.5 589.531 998.5 576Z" stroke="#000000" stroke-width="1.33333" stroke-miterlimit="8" fill="#FFFFFF" fill-rule="evenodd"/><text font-family="DengXian,DengXian_MSFontService,sans-serif" font-weight="400" font-size="19" transform="translate(1031.75 570)">接种<tspan font-size="19" x="0" y="23">时间</tspan></text><path d="M1050.5 600.5 1050.5 649.861" stroke="#000000" stroke-width="1.33333" stroke-miterlimit="8" fill="#FFFFFF" fill-rule="evenodd"/><path d="M966.5 659.5 987.531 675.459" stroke="#000000" stroke-width="1.33333" stroke-miterlimit="8" fill="#FFFFFF" fill-rule="evenodd"/><path d="M0 0 24.7418 15.9585" stroke="#000000" stroke-width="1.33333" stroke-miterlimit="8" fill="#FFFFFF" fill-rule="evenodd" transform="matrix(-1 0 0 1 1139.24 659.5)"/><path d="M0 0 62.5421 44.6598" stroke="#000000" stroke-width="1.33333" stroke-miterlimit="8" fill="#FFFFFF" fill-rule="evenodd" transform="matrix(-1 0 0 1 1051.04 699.5)"/><path d="M1050.5 699.5 1141.55 744.16" stroke="#000000" stroke-width="1.33333" stroke-miterlimit="8" fill="#FFFFFF" fill-rule="evenodd"/><rect x="617.5" y="827.5" width="127" height="49" stroke="#000000" stroke-width="1.33333" stroke-miterlimit="8" fill="#FFFFFF"/><text font-family="DengXian,DengXian_MSFontService,sans-serif" font-weight="400" font-size="24" transform="translate(656.444 859)">疫苗</text><path d="M492.5 836C492.5 822.469 515.781 811.5 544.5 811.5 573.219 811.5 596.5 822.469 596.5 836 596.5 849.531 573.219 860.5 544.5 860.5 515.781 860.5 492.5 849.531 492.5 836Z" stroke="#000000" stroke-width="1.33333" stroke-miterlimit="8" fill="#FFFFFF" fill-rule="evenodd"/><text font-family="DengXian,DengXian_MSFontService,sans-serif" font-weight="400" font-size="19" transform="translate(525.448 830)">疫苗<tspan font-size="19" x="0" y="23">说明</tspan></text><path d="M537.5 946C537.5 932.469 560.781 921.5 589.5 921.5 618.219 921.5 641.5 932.469 641.5 946 641.5 959.531 618.219 970.5 589.5 970.5 560.781 970.5 537.5 959.531 537.5 946Z" stroke="#000000" stroke-width="1.33333" stroke-miterlimit="8" fill="#FFFFFF" fill-rule="evenodd"/><text font-family="DengXian,DengXian_MSFontService,sans-serif" font-weight="400" font-size="19" transform="translate(570.776 940)">生产<tspan font-size="19" x="0" y="23">企业</tspan></text><path d="M720.5 946C720.5 932.469 743.557 921.5 772 921.5 800.443 921.5 823.5 932.469 823.5 946 823.5 959.531 800.443 970.5 772 970.5 743.557 970.5 720.5 959.531 720.5 946Z" stroke="#000000" stroke-width="1.33333" stroke-miterlimit="8" fill="#FFFFFF" fill-rule="evenodd"/><text font-family="DengXian,DengXian_MSFontService,sans-serif" font-weight="400" font-size="19" transform="translate(752.829 940)">疫苗<tspan font-size="19" x="0" y="23">类型</tspan></text><path d="M769.5 836C769.5 822.469 793.677 811.5 823.5 811.5 853.323 811.5 877.5 822.469 877.5 836 877.5 849.531 853.323 860.5 823.5 860.5 793.677 860.5 769.5 849.531 769.5 836Z" stroke="#000000" stroke-width="1.33333" stroke-miterlimit="8" fill="#FFFFFF" fill-rule="evenodd"/><text font-family="DengXian,DengXian_MSFontService,sans-serif" font-weight="400" font-size="19" transform="translate(794.838 830)">需接种<tspan font-size="19" x="9.33331" y="23">剂次</tspan></text><path d="M567.5 763C567.5 749.469 590.781 738.5 619.5 738.5 648.219 738.5 671.5 749.469 671.5 763 671.5 776.531 648.219 787.5 619.5 787.5 590.781 787.5 567.5 776.531 567.5 763Z" stroke="#000000" stroke-width="1.33333" stroke-miterlimit="8" fill="#FFFFFF" fill-rule="evenodd"/><text font-family="DengXian,DengXian_MSFontService,sans-serif" font-weight="400" font-size="19" transform="translate(600.384 757)">疫苗<tspan font-size="19" x="0" y="23">编号</tspan></text><path d="M619.5 787.5 680.894 827.185" stroke="#000000" stroke-width="1.33333" stroke-miterlimit="8" fill="#FFFFFF" fill-rule="evenodd"/><path d="M596.5 835.5 617.531 851.459" stroke="#000000" stroke-width="1.33333" stroke-miterlimit="8" fill="#FFFFFF" fill-rule="evenodd"/><path d="M0 0 24.7418 15.9584" stroke="#000000" stroke-width="1.33333" stroke-miterlimit="8" fill="#FFFFFF" fill-rule="evenodd" transform="matrix(-1 0 0 1 769.242 835.5)"/><path d="M0 0 91.0014 44.6599" stroke="#000000" stroke-width="1.33333" stroke-miterlimit="8" fill="#FFFFFF" fill-rule="evenodd" transform="matrix(-1 0 0 1 680.501 876.5)"/><path d="M680.5 876.5 771.552 921.16" stroke="#000000" stroke-width="1.33333" stroke-miterlimit="8" fill="#FFFFFF" fill-rule="evenodd"/><path d="M1000.5 971 1064 946.5 1127.5 971 1064 995.5Z" stroke="#000000" stroke-width="1.33333" stroke-miterlimit="8" fill="#FFFFFF" fill-rule="evenodd"/><text font-family="DengXian,DengXian_MSFontService,sans-serif" font-weight="400" font-size="21" transform="translate(1042.12 978)">预约</text><path d="M940.5 887C940.5 873.469 963.781 862.5 992.5 862.5 1021.22 862.5 1044.5 873.469 1044.5 887 1044.5 900.531 1021.22 911.5 992.5 911.5 963.781 911.5 940.5 900.531 940.5 887Z" stroke="#000000" stroke-width="1.33333" stroke-miterlimit="8" fill="#FFFFFF" fill-rule="evenodd"/><text font-family="DengXian,DengXian_MSFontService,sans-serif" font-weight="400" font-size="19" transform="translate(973.533 881)">预约<tspan font-size="19" x="0" y="23">时间</tspan></text><path d="M940.5 1055C940.5 1041.47 965.572 1030.5 996.5 1030.5 1027.43 1030.5 1052.5 1041.47 1052.5 1055 1052.5 1068.53 1027.43 1079.5 996.5 1079.5 965.572 1079.5 940.5 1068.53 940.5 1055Z" stroke="#000000" stroke-width="1.33333" stroke-miterlimit="8" fill="#FFFFFF" fill-rule="evenodd"/><text font-family="DengXian,DengXian_MSFontService,sans-serif" font-weight="400" font-size="19" transform="translate(968.076 1049)">预约接<tspan font-size="19" x="0" y="23">种地点</tspan></text><path d="M1083.5 1053.5C1083.5 1039.69 1106.78 1028.5 1135.5 1028.5 1164.22 1028.5 1187.5 1039.69 1187.5 1053.5 1187.5 1067.31 1164.22 1078.5 1135.5 1078.5 1106.78 1078.5 1083.5 1067.31 1083.5 1053.5Z" stroke="#000000" stroke-width="1.33333" stroke-miterlimit="8" fill="#FFFFFF" fill-rule="evenodd"/><text font-family="DengXian,DengXian_MSFontService,sans-serif" font-weight="400" font-size="19" transform="translate(1116.21 1048)">预约<tspan font-size="19" x="0" y="23">说明</tspan></text><path d="M1083.5 883.5C1083.5 869.693 1111.93 858.5 1147 858.5 1182.07 858.5 1210.5 869.693 1210.5 883.5 1210.5 897.307 1182.07 908.5 1147 908.5 1111.93 908.5 1083.5 897.307 1083.5 883.5Z" stroke="#000000" stroke-width="1.33333" stroke-miterlimit="8" fill="#FFFFFF" fill-rule="evenodd"/><text font-family="DengXian,DengXian_MSFontService,sans-serif" font-weight="400" font-size="19" transform="translate(1118.26 878)">预约接<tspan font-size="19" x="0" y="23">种时间</tspan></text><path d="M992.5 911.5 1063.76 946.14" stroke="#000000" stroke-width="1.33333" stroke-miterlimit="8" fill="#FFFFFF" fill-rule="evenodd"/><path d="M0 0 82.8044 37.7633" stroke="#000000" stroke-width="1.33333" stroke-miterlimit="8" fill="#FFFFFF" fill-rule="evenodd" transform="matrix(-1 0 0 1 1146.3 908.5)"/><path d="M0 0 67.3814 34.6392" stroke="#000000" stroke-width="1.33333" stroke-miterlimit="8" fill="#FFFFFF" fill-rule="evenodd" transform="matrix(-1 0 0 1 1063.88 995.5)"/><path d="M1063.5 995.5 1134.92 1028.62" stroke="#000000" stroke-width="1.33333" stroke-miterlimit="8" fill="#FFFFFF" fill-rule="evenodd"/><rect x="301.5" y="191.5" width="127" height="50" stroke="#000000" stroke-width="1.33333" stroke-miterlimit="8" fill="#FFFFFF"/><text font-family="DengXian,DengXian_MSFontService,sans-serif" font-weight="400" font-size="24" transform="translate(340.816 224)">居民</text><path d="M607.5 216.5 671 191.5 734.5 216.5 671 241.5Z" stroke="#000000" stroke-width="1.33333" stroke-miterlimit="8" fill="#FFFFFF" fill-rule="evenodd"/><text font-family="DengXian,DengXian_MSFontService,sans-serif" font-weight="400" font-size="21" transform="translate(649.482 223)">接种</text><rect x="907.5" y="191.5" width="126" height="50" stroke="#000000" stroke-width="1.33333" stroke-miterlimit="8" fill="#FFFFFF"/><text font-family="DengXian,DengXian_MSFontService,sans-serif" font-weight="400" font-size="24" transform="translate(945.958 224)">疫苗</text><rect x="617.5" y="534.5" width="127" height="50" stroke="#000000" stroke-width="1.33333" stroke-miterlimit="8" fill="#FFFFFF"/><text font-family="DengXian,DengXian_MSFontService,sans-serif" font-weight="400" font-size="24" transform="translate(644.444 567)">接种点</text><path d="M434.5 425.5 498 400.5 561.5 425.5 498 450.5Z" stroke="#000000" stroke-width="1.33333" stroke-miterlimit="8" fill="#FFFFFF" fill-rule="evenodd"/><text font-family="DengXian,DengXian_MSFontService,sans-serif" font-weight="400" font-size="21" transform="translate(476.428 432)">预约</text><path d="M428.5 216.5 607.82 216.5" stroke="#000000" stroke-width="0.666667" stroke-miterlimit="8" fill="none" fill-rule="evenodd"/><path d="M734.5 216.5 906.962 216.5" stroke="#000000" stroke-width="0.666667" stroke-miterlimit="8" fill="none" fill-rule="evenodd"/><path d="M365.5 241.5 435.105 425.587" stroke="#000000" stroke-width="0.666667" stroke-miterlimit="8" fill="none" fill-rule="evenodd"/><path d="M561.5 425.5 617.503 559.413" stroke="#000000" stroke-width="0.666667" stroke-miterlimit="8" fill="none" fill-rule="evenodd"/><path d="M799.5 425.5 863 400.5 926.5 425.5 863 450.5Z" stroke="#000000" stroke-width="1.33333" stroke-miterlimit="8" fill="#FFFFFF" fill-rule="evenodd"/><text font-family="DengXian,DengXian_MSFontService,sans-serif" font-weight="400" font-size="21" transform="translate(841.196 432)">使用</text><path d="M0 0 44.0885 184.087" stroke="#000000" stroke-width="0.666667" stroke-miterlimit="8" fill="none" fill-rule="evenodd" transform="matrix(-1 0 0 1 970.589 241.5)"/><path d="M0 0 55.4048 133.913" stroke="#000000" stroke-width="0.666667" stroke-miterlimit="8" fill="none" fill-rule="evenodd" transform="matrix(-1 0 0 1 799.905 425.5)"/><text font-family="Calibri,Calibri_MSFontService,sans-serif" font-weight="400" font-size="24" transform="translate(539.486 204)">1<tspan font-size="24" x="266.088" y="0">n</tspan><tspan font-size="24" x="-125.594" y="130">1</tspan><tspan font-size="24" x="213.898" y="275">n</tspan><tspan font-size="24" x="386.889" y="113">1</tspan><tspan font-size="24" x="59.0363" y="275">n</tspan></text><path d="M701.5 763C701.5 749.469 724.781 738.5 753.5 738.5 782.219 738.5 805.5 749.469 805.5 763 805.5 776.531 782.219 787.5 753.5 787.5 724.781 787.5 701.5 776.531 701.5 763Z" stroke="#000000" stroke-width="1.33333" stroke-miterlimit="8" fill="#FFFFFF" fill-rule="evenodd"/><text font-family="DengXian,DengXian_MSFontService,sans-serif" font-weight="400" font-size="19" transform="translate(734.186 757)">疫苗<tspan font-size="19" x="0" y="23">名称</tspan></text><path d="M0 0 72.4086 39.3599" stroke="#000000" stroke-width="1.33333" stroke-miterlimit="8" fill="#FFFFFF" fill-rule="evenodd" transform="matrix(-1 0 0 1 752.909 787.5)"/><rect x="216.5" y="934.5" width="127" height="50" stroke="#000000" stroke-width="1.33333" stroke-miterlimit="8" fill="#FFFFFF"/><text font-family="DengXian,DengXian_MSFontService,sans-serif" font-weight="400" font-size="24" transform="translate(243.567 967)">接种点</text><path d="M87.5001 944C87.5001 930.469 111.677 919.5 141.5 919.5 171.323 919.5 195.5 930.469 195.5 944 195.5 957.531 171.323 968.5 141.5 968.5 111.677 968.5 87.5001 957.531 87.5001 944Z" stroke="#000000" stroke-width="1.33333" stroke-miterlimit="8" fill="#FFFFFF" fill-rule="evenodd"/><text font-family="DengXian,DengXian_MSFontService,sans-serif" font-weight="400" font-size="19" transform="translate(112.883 938)">接种点<tspan font-size="19" x="9.33333" y="23">地址</tspan></text><path d="M136.5 1054C136.5 1040.47 164.706 1029.5 199.5 1029.5 234.294 1029.5 262.5 1040.47 262.5 1054 262.5 1067.53 234.294 1078.5 199.5 1078.5 164.706 1078.5 136.5 1067.53 136.5 1054Z" stroke="#000000" stroke-width="1.33333" stroke-miterlimit="8" fill="#FFFFFF" fill-rule="evenodd"/><text font-family="DengXian,DengXian_MSFontService,sans-serif" font-weight="400" font-size="19" transform="translate(170.907 1048)">接种结<tspan font-size="19" x="0" y="23">束时间</tspan></text><path d="M368.5 944C368.5 930.469 392.453 919.5 422 919.5 451.547 919.5 475.5 930.469 475.5 944 475.5 957.531 451.547 968.5 422 968.5 392.453 968.5 368.5 957.531 368.5 944Z" stroke="#000000" stroke-width="1.33333" stroke-miterlimit="8" fill="#FFFFFF" fill-rule="evenodd"/><text font-family="DengXian,DengXian_MSFontService,sans-serif" font-weight="400" font-size="19" transform="translate(393.426 938)">接种点<tspan font-size="19" x="9.33334" y="23">名称</tspan></text><path d="M225.5 861C225.5 847.469 249.901 836.5 280 836.5 310.1 836.5 334.5 847.469 334.5 861 334.5 874.531 310.1 885.5 280 885.5 249.901 885.5 225.5 874.531 225.5 861Z" stroke="#000000" stroke-width="1.33333" stroke-miterlimit="8" fill="#FFFFFF" fill-rule="evenodd"/><text font-family="DengXian,DengXian_MSFontService,sans-serif" font-weight="400" font-size="19" transform="translate(251.566 855)">接种点<tspan font-size="19" x="9.33334" y="23">编号</tspan></text><path d="M280.5 885.5 280.5 934.861" stroke="#000000" stroke-width="1.33333" stroke-miterlimit="8" fill="#FFFFFF" fill-rule="evenodd"/><path d="M195.5 943.5 216.531 959.459" stroke="#000000" stroke-width="1.33333" stroke-miterlimit="8" fill="#FFFFFF" fill-rule="evenodd"/><path d="M0 0 24.7418 15.9585" stroke="#000000" stroke-width="1.33333" stroke-miterlimit="8" fill="#FFFFFF" fill-rule="evenodd" transform="matrix(-1 0 0 1 368.242 943.5)"/><path d="M0 0 80.6598 44.6598" stroke="#000000" stroke-width="1.33333" stroke-miterlimit="8" fill="#FFFFFF" fill-rule="evenodd" transform="matrix(-1 0 0 1 280.16 984.5)"/><path d="M301.5 1054C301.5 1040.47 329.93 1029.5 365 1029.5 400.07 1029.5 428.5 1040.47 428.5 1054 428.5 1067.53 400.07 1078.5 365 1078.5 329.93 1078.5 301.5 1067.53 301.5 1054Z" stroke="#000000" stroke-width="1.33333" stroke-miterlimit="8" fill="#FFFFFF" fill-rule="evenodd"/><text font-family="DengXian,DengXian_MSFontService,sans-serif" font-weight="400" font-size="19" transform="translate(336.35 1048)">接种开<tspan font-size="19" x="0" y="23">始时间</tspan></text><path d="M280.5 984.5 365.284 1029.16" stroke="#000000" stroke-width="1.33333" stroke-miterlimit="8" fill="#FFFFFF" fill-rule="evenodd"/></g></svg>