<svg width="464" height="353" xmlns="http://www.w3.org/2000/svg" xmlns:xlink="http://www.w3.org/1999/xlink" overflow="hidden"><defs><clipPath id="clip0"><rect x="353" y="119" width="464" height="353"/></clipPath></defs><g clip-path="url(#clip0)" transform="translate(-353 -119)"><path d="M444.5 130.834C444.5 125.127 449.127 120.5 454.834 120.5L717.166 120.5C722.874 120.5 727.5 125.127 727.5 130.834L727.5 172.166C727.5 177.874 722.874 182.5 717.166 182.5L454.834 182.5C449.127 182.5 444.5 177.874 444.5 172.166Z" stroke="#000000" stroke-width="1.33333" stroke-miterlimit="8" fill="#FFFFFF" fill-rule="evenodd"/><text font-family="DengXian,DengXian_MSFontService,sans-serif" font-weight="400" font-size="24" transform="translate(465.351 158)">新冠疫苗接种<tspan font-size="24" x="144" y="0">管理系统</tspan></text><path d="M453.5 285.5C453.5 279.425 458.425 274.5 464.5 274.5L508.5 274.5C514.575 274.5 519.5 279.425 519.5 285.5L519.5 459.5C519.5 465.575 514.575 470.5 508.5 470.5L464.5 470.5C458.425 470.5 453.5 465.575 453.5 459.5Z" stroke="#000000" stroke-width="1.33333" stroke-miterlimit="8" fill="#FFFFFF" fill-rule="evenodd"/><text font-family="DengXian,DengXian_MSFontService,sans-serif" font-weight="400" font-size="24" transform="translate(474.17 336)">预<tspan font-size="24" x="0" y="29">约</tspan><tspan font-size="24" x="0" y="58">管</tspan><tspan font-size="24" x="0" y="87">理</tspan></text><path d="M354.5 285.667C354.5 279.5 359.5 274.5 365.667 274.5L410.333 274.5C416.5 274.5 421.5 279.5 421.5 285.667L421.5 459.333C421.5 465.5 416.5 470.5 410.333 470.5L365.667 470.5C359.5 470.5 354.5 465.5 354.5 459.333Z" stroke="#000000" stroke-width="1.33333" stroke-miterlimit="8" fill="#FFFFFF" fill-rule="evenodd"/><text font-family="DengXian,DengXian_MSFontService,sans-serif" font-weight="400" font-size="24" transform="translate(375.51 336)">居<tspan font-size="24" x="0" y="29">民</tspan><tspan font-size="24" x="0" y="58">管</tspan><tspan font-size="24" x="0" y="87">理</tspan></text><path d="M650.5 285.667C650.5 279.5 655.5 274.5 661.667 274.5L706.333 274.5C712.5 274.5 717.5 279.5 717.5 285.667L717.5 459.333C717.5 465.5 712.5 470.5 706.333 470.5L661.667 470.5C655.5 470.5 650.5 465.5 650.5 459.333Z" stroke="#000000" stroke-width="1.33333" stroke-miterlimit="8" fill="#FFFFFF" fill-rule="evenodd"/><text font-family="DengXian,DengXian_MSFontService,sans-serif" font-weight="400" font-size="24" transform="translate(671.553 336)">疫<tspan font-size="24" x="0" y="29">苗</tspan><tspan font-size="24" x="0" y="58">管</tspan><tspan font-size="24" x="0" y="87">理</tspan></text><path d="M749.5 285.667C749.5 279.5 754.5 274.5 760.667 274.5L805.333 274.5C811.5 274.5 816.5 279.5 816.5 285.667L816.5 459.333C816.5 465.5 811.5 470.5 805.333 470.5L760.667 470.5C754.5 470.5 749.5 465.5 749.5 459.333Z" stroke="#000000" stroke-width="1.33333" stroke-miterlimit="8" fill="#FFFFFF" fill-rule="evenodd"/><text font-family="DengXian,DengXian_MSFontService,sans-serif" font-weight="400" font-size="24" transform="translate(770.244 322)">接<tspan font-size="24" x="0" y="29">种</tspan><tspan font-size="24" x="0" y="58">点</tspan><tspan font-size="24" x="0" y="87">管</tspan><tspan font-size="24" x="0" y="116">理</tspan></text><path d="M0 0 0.489974 92.3219" stroke="#000000" stroke-width="0.666667" stroke-miterlimit="8" fill="none" fill-rule="evenodd" transform="matrix(-1 0 0 1 585.99 182.5)"/><path d="M552.5 285.5C552.5 279.425 557.425 274.5 563.5 274.5L607.5 274.5C613.575 274.5 618.5 279.425 618.5 285.5L618.5 459.5C618.5 465.575 613.575 470.5 607.5 470.5L563.5 470.5C557.425 470.5 552.5 465.575 552.5 459.5Z" stroke="#000000" stroke-width="1.33333" stroke-miterlimit="8" fill="#FFFFFF" fill-rule="evenodd"/><text font-family="DengXian,DengXian_MSFontService,sans-serif" font-weight="400" font-size="24" transform="translate(572.861 337)">接<tspan font-size="24" x="0" y="29">种</tspan><tspan font-size="24" x="0" y="58">管</tspan><tspan font-size="24" x="0" y="87">理</tspan></text><path d="M0 0 45.9547 0 45.9547 98.9607" stroke="#000000" stroke-width="0.666667" stroke-miterlimit="8" fill="none" fill-rule="evenodd" transform="matrix(-1.83697e-16 -1 -1 1.83697e-16 684.461 274.455)"/><path d="M0 0 45.9549 0 45.9549 98.6913" stroke="#000000" stroke-width="0.666667" stroke-miterlimit="8" fill="none" fill-rule="evenodd" transform="matrix(-1.83697e-16 -1 -1 1.83697e-16 783.191 274.455)"/><path d="M486.5 274.455 486.5 228.5 584.922 228.5" stroke="#000000" stroke-width="0.666667" stroke-miterlimit="8" fill="none" fill-rule="evenodd"/><path d="M388.5 274.455 388.5 228.5 486.891 228.5" stroke="#000000" stroke-width="0.666667" stroke-miterlimit="8" fill="none" fill-rule="evenodd"/></g></svg>