<svg width="1166" height="948" xmlns="http://www.w3.org/2000/svg" xmlns:xlink="http://www.w3.org/1999/xlink" overflow="hidden"><defs><clipPath id="clip0"><rect x="65" y="130" width="1166" height="948"/></clipPath></defs><g clip-path="url(#clip0)" transform="translate(-65 -130)"><rect x="117.5" y="1013.5" width="139" height="54.9999" stroke="#000000" stroke-width="1.33333" stroke-miterlimit="8" fill="#FFFFFF"/><text font-family="DengXian,DengXian_MSFontService,sans-serif" font-weight="400" font-size="24" transform="translate(162.563 1048)">居民</text><path d="M69 811 303.24 811" stroke="#000000" stroke-width="2" stroke-miterlimit="8" fill="none" fill-rule="evenodd"/><path d="M69 826 303.24 826" stroke="#000000" stroke-width="2" stroke-miterlimit="8" fill="none" fill-rule="evenodd"/><text font-family="DengXian,DengXian_MSFontService,sans-serif" font-weight="400" font-size="24" transform="translate(139.453 795)">居民信息</text><path d="M84.5001 891.334C84.5001 885.35 89.3504 880.5 95.3336 880.5L278.666 880.5C284.65 880.5 289.5 885.35 289.5 891.334L289.5 934.666C289.5 940.65 284.65 945.5 278.666 945.5L95.3336 945.5C89.3504 945.5 84.5001 940.65 84.5001 934.666Z" stroke="#000000" stroke-width="1.33333" stroke-miterlimit="8" fill="#FFFFFF" fill-rule="evenodd"/><text font-family="DengXian,DengXian_MSFontService,sans-serif" font-weight="400" font-size="24" transform="translate(114.563 920)">身份信息验证</text><path d="M0.333333-5.12076e-07 0.333428 61.674-0.333239 61.674-0.333333 5.12076e-07ZM4.00009 60.3407 0.000104987 68.3407-3.99991 60.3407Z" transform="matrix(1 0 0 -1 187.5 1013.84)"/><path d="M0.333333-6.51067e-07 0.333425 47.0845-0.333241 47.0845-0.333333 6.51067e-07ZM4.00009 45.7512 0.000104987 53.7512-3.99991 45.7512Z" transform="matrix(1 0 0 -1 187.5 880.251)"/><text font-family="DengXian,DengXian_MSFontService,sans-serif" font-weight="400" font-size="24" transform="translate(136.171 985)">个人<tspan font-size="24" x="53.5" y="0">信息</tspan></text><rect x="66.5001" y="428.5" width="138" height="55" stroke="#000000" stroke-width="1.33333" stroke-miterlimit="8" fill="#FFFFFF"/><text font-family="DengXian,DengXian_MSFontService,sans-serif" font-weight="400" font-size="24" transform="translate(111.186 463)">居民</text><path d="M373.5 434.334C373.5 428.35 378.35 423.5 384.334 423.5L568.667 423.5C574.65 423.5 579.5 428.35 579.5 434.334L579.5 477.667C579.5 483.65 574.65 488.5 568.667 488.5L384.334 488.5C378.35 488.5 373.5 483.65 373.5 477.667Z" stroke="#000000" stroke-width="1.33333" stroke-miterlimit="8" fill="#FFFFFF" fill-rule="evenodd"/><text font-family="DengXian,DengXian_MSFontService,sans-serif" font-weight="400" font-size="24" transform="translate(427.849 463)">预约安排</text><path d="M753 447 987.24 447" stroke="#000000" stroke-width="2" stroke-miterlimit="8" fill="none" fill-rule="evenodd"/><path d="M753 462 987.24 462" stroke="#000000" stroke-width="2" stroke-miterlimit="8" fill="none" fill-rule="evenodd"/><text font-family="DengXian,DengXian_MSFontService,sans-serif" font-weight="400" font-size="24" transform="translate(813.751 490)">疫苗信息</text><path d="M2.00389e-07-0.333333 167.972-0.333232 167.972 0.333434-2.00389e-07 0.333333ZM166.638-3.9999 174.638 0.000104987 166.638 4.0001Z" transform="matrix(-1 0 0 1 754.138 455.5)"/><path d="M204.5 455.167 366.657 455.167 366.657 455.833 204.5 455.833ZM365.324 451.5 373.324 455.5 365.324 459.5Z"/><path d="M358 683 592.24 683" stroke="#000000" stroke-width="2" stroke-miterlimit="8" fill="none" fill-rule="evenodd"/><path d="M358 698 592.24 698" stroke="#000000" stroke-width="2" stroke-miterlimit="8" fill="none" fill-rule="evenodd"/><text font-family="DengXian,DengXian_MSFontService,sans-serif" font-weight="400" font-size="24" transform="translate(426.893 726)">预约记录<tspan font-size="24" x="-191.073" y="-244">居民信息</tspan><tspan font-size="24" x="167.979" y="-244">预约疫苗信息</tspan></text><path d="M357.379 691.716 140.138 488.3 140.594 487.813 357.835 691.229ZM138.606 491.888 135.5 483.5 144.074 486.048Z"/><text font-family="DengXian,DengXian_MSFontService,sans-serif" font-weight="400" font-size="24" transform="translate(95.5788 618)">预约成功信息</text><rect x="496.5" y="836.5" width="138" height="55" stroke="#000000" stroke-width="1.33333" stroke-miterlimit="8" fill="#FFFFFF"/><text font-family="DengXian,DengXian_MSFontService,sans-serif" font-weight="400" font-size="24" transform="translate(540.656 871)">居民</text><path d="M995 1007 1229.24 1007" stroke="#000000" stroke-width="2" stroke-miterlimit="8" fill="none" fill-rule="evenodd"/><path d="M995 1023 1229.24 1023" stroke="#000000" stroke-width="2" stroke-miterlimit="8" fill="none" fill-rule="evenodd"/><text font-family="DengXian,DengXian_MSFontService,sans-serif" font-weight="400" font-size="24" transform="translate(1063.88 1050)">接种记录</text><rect x="818.5" y="676.5" width="139" height="54" stroke="#000000" stroke-width="1.33333" stroke-miterlimit="8" fill="#FFFFFF"/><text font-family="DengXian,DengXian_MSFontService,sans-serif" font-weight="400" font-size="24" transform="translate(863.605 711)">疫苗</text><path d="M770.5 841.5C770.5 835.425 775.425 830.5 781.5 830.5L964.5 830.5C970.575 830.5 975.5 835.425 975.5 841.5L975.5 885.5C975.5 891.575 970.575 896.5 964.5 896.5L781.5 896.5C775.425 896.5 770.5 891.575 770.5 885.5Z" stroke="#000000" stroke-width="1.33333" stroke-miterlimit="8" fill="#FFFFFF" fill-rule="evenodd"/><text font-family="DengXian,DengXian_MSFontService,sans-serif" font-weight="400" font-size="24" transform="translate(824.706 871)">疫苗接种</text><path d="M0.00118544-0.333331 129.545 0.127369 129.542 0.794032-0.00118544 0.333331ZM128.225-3.54402 136.21 0.484409 128.196 4.45593Z" transform="matrix(1 0 0 -1 634.5 863.984)"/><text font-family="DengXian,DengXian_MSFontService,sans-serif" font-weight="400" font-size="24" transform="translate(676.048 857)">预约<tspan font-size="24" x="-24" y="29">成功</tspan>信息</text><path d="M975.5 863.167 1112.85 863.167 1112.85 1001.18 1112.19 1001.18 1112.19 863.5 1112.52 863.833 975.5 863.833ZM1116.52 999.848 1112.52 1007.85 1108.52 999.848Z"/><text font-family="DengXian,DengXian_MSFontService,sans-serif" font-weight="400" font-size="24" transform="translate(730.432 1007)">接种成功<tspan font-size="24" x="24" y="29">信息</tspan></text><path d="M1010.5 564.334C1010.5 558.35 1015.35 553.5 1021.33 553.5L1204.67 553.5C1210.65 553.5 1215.5 558.35 1215.5 564.334L1215.5 607.666C1215.5 613.65 1210.65 618.5 1204.67 618.5L1021.33 618.5C1015.35 618.5 1010.5 613.65 1010.5 607.666Z" stroke="#000000" stroke-width="1.33333" stroke-miterlimit="8" fill="#FFFFFF" fill-rule="evenodd"/><text font-family="DengXian,DengXian_MSFontService,sans-serif" font-weight="400" font-size="24" transform="translate(1040.45 593)">疫苗信息登记</text><path d="M0-0.333333 156.054-0.333333 156.054 78.5188 155.387 78.5188 155.387 0 155.72 0.333333 0 0.333333ZM159.72 77.1854 155.72 85.1854 151.72 77.1854Z" transform="matrix(1 0 0 -1 957.5 703.685)"/><path d="M0-0.333333 97.7196-0.333333 97.7196 122.092 97.0529 122.092 97.0529 0 97.3862 0.333333 0 0.333333ZM101.386 120.759 97.3862 128.759 93.3862 120.759Z" transform="matrix(-1.83697e-16 -1 -1 1.83697e-16 1113.26 552.886)"/><text font-family="DengXian,DengXian_MSFontService,sans-serif" font-weight="400" font-size="24" transform="translate(977.09 688)">疫苗信息</text><path d="M996.17 1016 565.167 1016 565.167 898.167 565.833 898.167 565.833 1015.67 565.5 1015.33 996.17 1015.33ZM561.5 899.5 565.5 891.5 569.5 899.5Z"/><path d="M753 132 987.24 132" stroke="#000000" stroke-width="2" stroke-miterlimit="8" fill="none" fill-rule="evenodd"/><path d="M753 147 987.24 147" stroke="#000000" stroke-width="2" stroke-miterlimit="8" fill="none" fill-rule="evenodd"/><text font-family="DengXian,DengXian_MSFontService,sans-serif" font-weight="400" font-size="24" transform="translate(813.751 175)">接种点信息<tspan font-size="24" x="-320.834" y="135">预约接种点信息</tspan></text><rect x="818.5" y="360.5" width="139" height="55" stroke="#000000" stroke-width="1.33333" stroke-miterlimit="8" fill="#FFFFFF"/><text font-family="DengXian,DengXian_MSFontService,sans-serif" font-weight="400" font-size="24" transform="translate(851.605 395)">接种点</text><path d="M1010.5 248.5C1010.5 242.425 1015.42 237.5 1021.5 237.5L1204.5 237.5C1210.58 237.5 1215.5 242.425 1215.5 248.5L1215.5 292.5C1215.5 298.575 1210.58 303.5 1204.5 303.5L1021.5 303.5C1015.42 303.5 1010.5 298.575 1010.5 292.5Z" stroke="#000000" stroke-width="1.33333" stroke-miterlimit="8" fill="#FFFFFF" fill-rule="evenodd"/><text font-family="DengXian,DengXian_MSFontService,sans-serif" font-weight="400" font-size="24" transform="translate(1028.45 278)">接种点信息登记</text><path d="M0-0.333333 156.054-0.333333 156.054 78.5188 155.387 78.5188 155.387 0 155.72 0.333333 0 0.333333ZM159.72 77.1854 155.72 85.1854 151.72 77.1854Z" transform="matrix(1 0 0 -1 957.5 388.685)"/><path d="M0-0.333333 97.7196-0.333333 97.7196 122.092 97.0529 122.092 97.0529 0 97.3862 0.333333 0 0.333333ZM101.386 120.759 97.3862 128.759 93.3862 120.759Z" transform="matrix(-1.83697e-16 -1 -1 1.83697e-16 1113.26 237.886)"/><text font-family="DengXian,DengXian_MSFontService,sans-serif" font-weight="400" font-size="24" transform="translate(977.09 373)">接种点<tspan font-size="24" x="72.0001" y="0">信息</tspan></text><path d="M0-0.333333 280.018-0.333333 280.018 276.798 279.352 276.798 279.352 0 279.685 0.333333 0 0.333333ZM283.685 275.465 279.685 283.465 275.685 275.465Z" transform="matrix(-1 1.22465e-16 1.22465e-16 1 755.185 140.5)"/><path d="M0.333332-0.000815244 0.794717 188.647 0.128052 188.649-0.333332 0.000815244ZM4.45811 187.306 0.47769 195.315-3.54186 187.325Z" transform="matrix(-1 0 0 1 475.978 488.5)"/></g></svg>