<svg width="1250" height="671" xmlns="http://www.w3.org/2000/svg" xmlns:xlink="http://www.w3.org/1999/xlink" overflow="hidden"><defs><clipPath id="clip0"><rect x="18" y="411" width="1250" height="671"/></clipPath></defs><g clip-path="url(#clip0)" transform="translate(-18 -411)"><path d="M0-0.333333 48.9197-0.333333 48.9197 10.8124 48.253 10.8124 48.253 0 48.5863 0.333333 0 0.333333ZM52.5863 9.47905 48.5863 17.4791 44.5863 9.47905Z" transform="matrix(-1 1.22465e-16 1.22465e-16 1 741.086 773.5)"/><path d="M0-0.333333 59.9915-0.333333 59.9915 10.7913 59.3248 10.7913 59.3248 0 59.6582 0.333333 0 0.333333ZM63.6582 9.45793 59.6582 17.4579 55.6582 9.45793Z" transform="matrix(-1 1.22465e-16 1.22465e-16 1 1190.16 773.5)"/><path d="M1189.5 773.167 1249.49 773.167 1249.49 784.292 1248.83 784.292 1248.83 773.5 1249.16 773.833 1189.5 773.833ZM1253.16 782.959 1249.16 790.959 1245.16 782.959Z"/><path d="M0-0.333333 40.5853-0.333333 40.5853 10.8848 39.9186 10.8848 39.9186 0 40.252 0.333333 0 0.333333ZM44.252 9.5515 40.252 17.5515 36.252 9.5515Z" transform="matrix(-1 1.22465e-16 1.22465e-16 1 955.752 773.5)"/><path d="M0-0.333333 40.5855-0.333333 40.5855 10.8791 39.9188 10.8791 39.9188 0 40.2522 0.333333 0 0.333333ZM44.2522 9.54572 40.2522 17.5457 36.2522 9.54572Z" transform="matrix(-1 1.22465e-16 1.22465e-16 1 76.7522 773.5)"/><path d="M507.5 417.333C507.5 414.664 509.664 412.5 512.333 412.5L601.667 412.5C604.336 412.5 606.5 414.664 606.5 417.333L606.5 436.667C606.5 439.336 604.336 441.5 601.667 441.5L512.333 441.5C509.664 441.5 507.5 439.336 507.5 436.667Z" stroke="#000000" stroke-width="1.33333" stroke-miterlimit="8" fill="#FFFFFF" fill-rule="evenodd"/><text font-family="DengXian,DengXian_MSFontService,sans-serif" font-weight="400" font-size="16" transform="translate(540.107 432)">开始</text><rect x="505.5" y="465.5" width="106" height="29" stroke="#000000" stroke-width="1.33333" stroke-miterlimit="8" fill="#FFFFFF"/><text font-family="DengXian,DengXian_MSFontService,sans-serif" font-weight="400" font-size="16" transform="translate(541.651 485)">登录</text><path d="M484.5 605.5 557 581.5 629.5 605.5 557 629.5Z" stroke="#000000" stroke-width="1.33333" stroke-miterlimit="8" fill="#FFFFFF" fill-rule="evenodd"/><text font-family="DengXian,DengXian_MSFontService,sans-serif" font-weight="400" font-size="16" transform="translate(540.673 601)">登录<tspan font-size="16" x="0" y="19">验证</tspan></text><path d="M496.5 559.5 506.75 518.5 618.5 518.5 608.25 559.5Z" stroke="#000000" stroke-width="1.33333" stroke-miterlimit="8" fill="#FFFFFF" fill-rule="evenodd"/><text font-family="DengXian,DengXian_MSFontService,sans-serif" font-weight="400" font-size="16" transform="translate(524.998 534)">输入账号<tspan font-size="16" x="16" y="19">密码</tspan></text><rect x="504.5" y="652.5" width="106" height="29" stroke="#000000" stroke-width="1.33333" stroke-miterlimit="8" fill="#FFFFFF"/><text font-family="DengXian,DengXian_MSFontService,sans-serif" font-weight="400" font-size="16" transform="translate(524.673 672)">系统导航</text><path d="M556.833 441.479 557.955 459.163 557.289 459.205 556.167 441.521ZM561.529 457.6 558.044 465.837 553.546 458.107Z"/><path d="M0.33321-0.00906352 0.804643 17.3226 0.138223 17.3408-0.33321 0.00906352ZM4.4337 15.8901 0.652703 23.9959-3.56334 16.1076Z" transform="matrix(-1 0 0 1 558.153 494.5)"/><path d="M0.333297-0.00493655 0.559605 15.2745-0.106988 15.2844-0.333297 0.00493655ZM4.20612 13.887 0.325039 21.9454-3.793 14.0055Z" transform="matrix(-1 0 0 1 557.825 559.5)"/><path d="M557.833 629.5 557.833 645.314 557.167 645.314 557.167 629.5ZM561.5 643.98 557.5 651.98 553.5 643.98Z"/><path d="M629.925 605.001 653.925 605.001 653.592 605.334 653.592 479.5 653.925 479.833 618.167 479.833 618.167 479.167 654.258 479.167 654.258 605.668 629.925 605.668ZM619.5 483.5 611.5 479.5 619.5 475.5Z"/><text font-family="DengXian,DengXian_MSFontService,sans-serif" font-weight="400" font-size="16" transform="translate(663.629 543)">账号密码错误<tspan font-size="16" x="-83.8708" y="98">账号密码正确</tspan></text><rect x="797.5" y="588.5" width="105" height="29" stroke="#000000" stroke-width="1.33333" stroke-miterlimit="8" fill="#FFFFFF"/><text font-family="DengXian,DengXian_MSFontService,sans-serif" font-weight="400" font-size="16" transform="translate(833.477 608)">退出</text><path d="M0-0.333333 240.21-0.333333 240.21 42.8854 239.543 42.8854 239.543 0 239.877 0.333333 0 0.333333ZM243.877 41.552 239.877 49.552 235.877 41.552Z" transform="matrix(1 0 0 -1 610.5 667.052)"/><path d="M800.5 528.333C800.5 525.664 802.664 523.5 805.333 523.5L894.667 523.5C897.336 523.5 899.5 525.664 899.5 528.333L899.5 547.667C899.5 550.336 897.336 552.5 894.667 552.5L805.333 552.5C802.664 552.5 800.5 550.336 800.5 547.667Z" stroke="#000000" stroke-width="1.33333" stroke-miterlimit="8" fill="#FFFFFF" fill-rule="evenodd"/><text font-family="DengXian,DengXian_MSFontService,sans-serif" font-weight="400" font-size="16" transform="translate(833.477 543)">结束</text><path d="M849.167 588.884 849.167 559.167 849.833 559.167 849.833 588.884ZM845.5 560.5 849.5 552.5 853.5 560.5Z"/><rect x="23.5001" y="727.5" width="106" height="29" stroke="#000000" stroke-width="1.33333" stroke-miterlimit="8" fill="#FFFFFF"/><text font-family="DengXian,DengXian_MSFontService,sans-serif" font-weight="400" font-size="16" transform="translate(44.3872 747)">居民管理</text><rect x="903.5" y="727.5" width="106" height="29" stroke="#000000" stroke-width="1.33333" stroke-miterlimit="8" fill="#FFFFFF"/><text font-family="DengXian,DengXian_MSFontService,sans-serif" font-weight="400" font-size="16" transform="translate(923.658 747)">疫苗管理</text><rect x="470.5" y="727.5" width="106" height="29" stroke="#000000" stroke-width="1.33333" stroke-miterlimit="8" fill="#FFFFFF"/><text font-family="DengXian,DengXian_MSFontService,sans-serif" font-weight="400" font-size="16" transform="translate(490.89 747)">接种管理</text><rect x="241.5" y="727.5" width="106" height="29" stroke="#000000" stroke-width="1.33333" stroke-miterlimit="8" fill="#FFFFFF"/><text font-family="DengXian,DengXian_MSFontService,sans-serif" font-weight="400" font-size="16" transform="translate(261.767 747)">预约管理</text><rect x="682.5" y="727.5" width="117" height="29" stroke="#000000" stroke-width="1.33333" stroke-miterlimit="8" fill="#FFFFFF"/><text font-family="DengXian,DengXian_MSFontService,sans-serif" font-weight="400" font-size="16" transform="translate(700.489 747)">接种点管理</text><rect x="1137.5" y="727.5" width="105" height="29" stroke="#000000" stroke-width="1.33333" stroke-miterlimit="8" fill="#FFFFFF"/><text font-family="DengXian,DengXian_MSFontService,sans-serif" font-weight="400" font-size="16" transform="translate(1157.44 747)">系统管理</text><rect x="23.5001" y="791.5" width="26" height="138" stroke="#000000" stroke-width="1.33333" stroke-miterlimit="8" fill="#FFFFFF"/><text font-family="DengXian,DengXian_MSFontService,sans-serif" font-weight="400" font-size="16" transform="translate(28.1349 837)">添<tspan font-size="16" x="0" y="19">加</tspan><tspan font-size="16" x="0" y="38">居</tspan><tspan font-size="16" x="0" y="58">民</tspan></text><rect x="64.5001" y="791.5" width="25" height="138" stroke="#000000" stroke-width="1.33333" stroke-miterlimit="8" fill="#FFFFFF"/><text font-family="DengXian,DengXian_MSFontService,sans-serif" font-weight="400" font-size="16" transform="translate(68.3871 837)">查<tspan font-size="16" x="0" y="19">询</tspan><tspan font-size="16" x="0" y="38">居</tspan><tspan font-size="16" x="0" y="58">民</tspan></text><rect x="110.5" y="916.5" width="25" height="139" stroke="#000000" stroke-width="1.33333" stroke-miterlimit="8" fill="#FFFFFF"/><text font-family="DengXian,DengXian_MSFontService,sans-serif" font-weight="400" font-size="16" transform="translate(114.64 943)">更<tspan font-size="16" x="0" y="19">新</tspan><tspan font-size="16" x="0" y="38">居</tspan><tspan font-size="16" x="0" y="58">民</tspan><tspan font-size="16" x="0" y="77">信</tspan><tspan font-size="16" x="0" y="96">息</tspan></text><rect x="150.5" y="916.5" width="26" height="139" stroke="#000000" stroke-width="1.33333" stroke-miterlimit="8" fill="#FFFFFF"/><text font-family="DengXian,DengXian_MSFontService,sans-serif" font-weight="400" font-size="16" transform="translate(154.892 943)">删<tspan font-size="16" x="0" y="19">除</tspan><tspan font-size="16" x="0" y="38">居</tspan><tspan font-size="16" x="0" y="58">民</tspan><tspan font-size="16" x="0" y="77">信</tspan><tspan font-size="16" x="0" y="96">息</tspan></text><rect x="903.5" y="791.5" width="25" height="138" stroke="#000000" stroke-width="1.33333" stroke-miterlimit="8" fill="#FFFFFF"/><text font-family="DengXian,DengXian_MSFontService,sans-serif" font-weight="400" font-size="16" transform="translate(907.405 837)">添<tspan font-size="16" x="0" y="19">加</tspan><tspan font-size="16" x="0" y="38">疫</tspan><tspan font-size="16" x="0" y="58">苗</tspan></text><rect x="943.5" y="791.5" width="25" height="138" stroke="#000000" stroke-width="1.33333" stroke-miterlimit="8" fill="#FFFFFF"/><text font-family="DengXian,DengXian_MSFontService,sans-serif" font-weight="400" font-size="16" transform="translate(947.658 837)">查<tspan font-size="16" x="0" y="19">询</tspan><tspan font-size="16" x="0" y="38">疫</tspan><tspan font-size="16" x="0" y="58">苗</tspan></text><rect x="989.5" y="916.5" width="26" height="139" stroke="#000000" stroke-width="1.33333" stroke-miterlimit="8" fill="#FFFFFF"/><text font-family="DengXian,DengXian_MSFontService,sans-serif" font-weight="400" font-size="16" transform="translate(993.91 943)">更<tspan font-size="16" x="0" y="19">新</tspan><tspan font-size="16" x="0" y="38">疫</tspan><tspan font-size="16" x="0" y="58">苗</tspan><tspan font-size="16" x="0" y="77">信</tspan><tspan font-size="16" x="0" y="96">息</tspan></text><rect x="1029.5" y="916.5" width="26" height="139" stroke="#000000" stroke-width="1.33333" stroke-miterlimit="8" fill="#FFFFFF"/><text font-family="DengXian,DengXian_MSFontService,sans-serif" font-weight="400" font-size="16" transform="translate(1034.16 943)">删<tspan font-size="16" x="0" y="19">除</tspan><tspan font-size="16" x="0" y="38">疫</tspan><tspan font-size="16" x="0" y="58">苗</tspan><tspan font-size="16" x="0" y="77">信</tspan><tspan font-size="16" x="0" y="96">息</tspan></text><path d="M76.8335 756.5 76.8335 774.379 76.5001 774.379 76.8334 774.046 76.8334 784.925 76.1667 784.925 76.1667 773.712 76.5002 773.712 76.1668 774.046 76.1668 756.5ZM80.5001 783.591 76.5001 791.591 72.5001 783.591Z"/><path d="M89.5001 860.167 123.411 860.167 123.411 910.405 122.745 910.405 122.745 860.5 123.078 860.833 89.5001 860.833ZM127.078 909.071 123.078 917.071 119.078 909.071Z"/><path d="M89.5001 860.167 163.664 860.167 163.664 910.405 162.997 910.405 162.997 860.5 163.33 860.833 89.5001 860.833ZM167.33 909.071 163.33 917.071 159.33 909.071Z"/><path d="M956.833 756.5 956.833 774.212 956.5 774.212 956.833 773.879 956.833 784.591 956.167 784.591 956.167 773.546 956.5 773.546 956.167 773.879 956.167 756.5ZM960.5 783.258 956.5 791.258 952.5 783.258Z"/><path d="M968.5 860.167 1002.41 860.167 1002.41 910.405 1001.74 910.405 1001.74 860.5 1002.08 860.833 968.5 860.833ZM1006.08 909.071 1002.08 917.071 998.078 909.071Z"/><path d="M968.5 860.167 1042.66 860.167 1042.66 910.405 1042 910.405 1042 860.5 1042.33 860.833 968.5 860.833ZM1046.33 909.071 1042.33 917.071 1038.33 909.071Z"/><rect x="237.5" y="791.5" width="25" height="138" stroke="#000000" stroke-width="1.33333" stroke-miterlimit="8" fill="#FFFFFF"/><text font-family="DengXian,DengXian_MSFontService,sans-serif" font-weight="400" font-size="16" transform="translate(241.718 836)">选<tspan font-size="16" x="0" y="19">择</tspan><tspan font-size="16" x="0" y="38">居</tspan><tspan font-size="16" x="0" y="58">民</tspan></text><rect x="293.5" y="791.5" width="25" height="138" stroke="#000000" stroke-width="1.33333" stroke-miterlimit="8" fill="#FFFFFF"/><text font-family="DengXian,DengXian_MSFontService,sans-serif" font-weight="400" font-size="16" transform="translate(297.25 836)">选<tspan font-size="16" x="0" y="19">择</tspan><tspan font-size="16" x="0" y="38">疫</tspan><tspan font-size="16" x="0" y="58">苗</tspan></text><rect x="347.5" y="791.5" width="25" height="138" stroke="#000000" stroke-width="1.33333" stroke-miterlimit="8" fill="#FFFFFF"/><text font-family="DengXian,DengXian_MSFontService,sans-serif" font-weight="400" font-size="16" transform="translate(351.369 827)">选<tspan font-size="16" x="0" y="19">择</tspan><tspan font-size="16" x="0" y="38">接</tspan><tspan font-size="16" x="0" y="58">种</tspan><tspan font-size="16" x="0" y="77">点</tspan></text><rect x="347.5" y="942.5" width="25" height="138" stroke="#000000" stroke-width="1.33333" stroke-miterlimit="8" fill="#FFFFFF"/><text font-family="DengXian,DengXian_MSFontService,sans-serif" font-weight="400" font-size="16" transform="translate(351.369 968)">选<tspan font-size="16" x="0" y="19">择</tspan><tspan font-size="16" x="0" y="38">接</tspan><tspan font-size="16" x="0" y="58">种</tspan><tspan font-size="16" x="0" y="77">事</tspan><tspan font-size="16" x="0" y="96">件</tspan></text><rect x="294.5" y="942.5" width="25" height="138" stroke="#000000" stroke-width="1.33333" stroke-miterlimit="8" fill="#FFFFFF"/><text font-family="DengXian,DengXian_MSFontService,sans-serif" font-weight="400" font-size="16" transform="translate(298.442 968)">生<tspan font-size="16" x="0" y="19">成</tspan><tspan font-size="16" x="0" y="38">预</tspan><tspan font-size="16" x="0" y="58">约</tspan><tspan font-size="16" x="0" y="77">记</tspan><tspan font-size="16" x="0" y="96">录</tspan></text><path d="M294.882 756.5 294.882 774.201 250.5 774.201 250.833 773.868 250.833 784.568 250.167 784.568 250.167 773.534 294.548 773.534 294.215 773.868 294.215 756.5ZM254.5 783.235 250.5 791.235 246.5 783.235Z"/><path d="M372.5 860.167 396.833 860.167 396.833 1011.92 380.5 1011.92 380.5 1011.25 396.5 1011.25 396.167 1011.59 396.167 860.5 396.5 860.833 372.5 860.833ZM381.833 1015.59 373.833 1011.59 381.833 1007.59Z"/><path d="M262.5 860.167 286.016 860.167 286.016 860.833 262.5 860.833ZM284.683 856.5 292.683 860.5 284.683 864.5Z"/><path d="M318.5 860.167 340.602 860.167 340.602 860.833 318.5 860.833ZM339.269 856.5 347.269 860.5 339.269 864.5Z"/><path d="M1.26899e-06-0.333333 20.911-0.333254 20.911 0.333413-1.26899e-06 0.333333ZM19.5777-3.99993 27.5776 0.000104987 19.5776 4.00007Z" transform="matrix(-1 0 0 1 347.078 1011.5)"/><rect x="468.5" y="791.5" width="25" height="138" stroke="#000000" stroke-width="1.33333" stroke-miterlimit="8" fill="#FFFFFF"/><text font-family="DengXian,DengXian_MSFontService,sans-serif" font-weight="400" font-size="16" transform="translate(472.739 817)">选<tspan font-size="16" x="0" y="19">择</tspan><tspan font-size="16" x="0" y="38">预</tspan><tspan font-size="16" x="0" y="58">约</tspan><tspan font-size="16" x="0" y="77">记</tspan><tspan font-size="16" x="0" y="96">录</tspan></text><rect x="522.5" y="791.5" width="25" height="138" stroke="#000000" stroke-width="1.33333" stroke-miterlimit="8" fill="#FFFFFF"/><text font-family="DengXian,DengXian_MSFontService,sans-serif" font-weight="400" font-size="16" transform="translate(526.209 808)">录<tspan font-size="16" x="0" y="19">入</tspan><tspan font-size="16" x="0" y="38">疫</tspan><tspan font-size="16" x="0" y="58">苗</tspan><tspan font-size="16" x="0" y="77">追</tspan><tspan font-size="16" x="0" y="96">溯</tspan><tspan font-size="16" x="0" y="115">码</tspan></text><path d="M523.984 756.5 523.984 774.286 481.5 774.286 481.833 773.953 481.833 784.739 481.167 784.739 481.167 773.62 523.651 773.62 523.318 773.953 523.318 756.5ZM485.5 783.406 481.5 791.406 477.5 783.406Z"/><path d="M493.5 860.167 514.954 860.167 514.954 860.833 493.5 860.833ZM513.621 856.5 521.621 860.5 513.621 864.5Z"/><rect x="679.5" y="791.5" width="26" height="138" stroke="#000000" stroke-width="1.33333" stroke-miterlimit="8" fill="#FFFFFF"/><text font-family="DengXian,DengXian_MSFontService,sans-serif" font-weight="400" font-size="16" transform="translate(683.851 827)">添<tspan font-size="16" x="0" y="19">加</tspan><tspan font-size="16" x="0" y="38">接</tspan><tspan font-size="16" x="0" y="58">种</tspan><tspan font-size="16" x="0" y="77">点</tspan></text><rect x="728.5" y="791.5" width="25" height="138" stroke="#000000" stroke-width="1.33333" stroke-miterlimit="8" fill="#FFFFFF"/><text font-family="DengXian,DengXian_MSFontService,sans-serif" font-weight="400" font-size="16" transform="translate(732.436 827)">查<tspan font-size="16" x="0" y="19">询</tspan><tspan font-size="16" x="0" y="38">接</tspan><tspan font-size="16" x="0" y="58">种</tspan><tspan font-size="16" x="0" y="77">点</tspan></text><rect x="774.5" y="917.5" width="25" height="138" stroke="#000000" stroke-width="1.33333" stroke-miterlimit="8" fill="#FFFFFF"/><text font-family="DengXian,DengXian_MSFontService,sans-serif" font-weight="400" font-size="16" transform="translate(778.689 953)">更<tspan font-size="16" x="0" y="19">新</tspan><tspan font-size="16" x="0" y="38">接</tspan><tspan font-size="16" x="0" y="58">种</tspan><tspan font-size="16" x="0" y="77">点</tspan></text><rect x="814.5" y="917.5" width="26" height="138" stroke="#000000" stroke-width="1.33333" stroke-miterlimit="8" fill="#FFFFFF"/><text font-family="DengXian,DengXian_MSFontService,sans-serif" font-weight="400" font-size="16" transform="translate(818.941 953)">删<tspan font-size="16" x="0" y="19">除</tspan><tspan font-size="16" x="0" y="38">接</tspan><tspan font-size="16" x="0" y="58">种</tspan><tspan font-size="16" x="0" y="77">点</tspan></text><path d="M753.5 860.167 787.411 860.167 787.411 910.405 786.745 910.405 786.745 860.5 787.078 860.833 753.5 860.833ZM791.078 909.071 787.078 917.071 783.078 909.071Z"/><path d="M753.5 860.167 827.664 860.167 827.664 910.405 826.997 910.405 826.997 860.5 827.33 860.833 753.5 860.833ZM831.33 909.071 827.33 917.071 823.33 909.071Z"/><path d="M740.886 756.5 740.886 774.201 740.5 774.201 740.833 773.867 740.833 784.568 740.167 784.568 740.167 773.534 740.552 773.534 740.219 773.867 740.219 756.5ZM744.5 783.235 740.5 791.235 736.5 783.235Z"/><rect x="1117.5" y="791.5" width="25" height="138" stroke="#000000" stroke-width="1.33333" stroke-miterlimit="8" fill="#FFFFFF"/><text font-family="DengXian,DengXian_MSFontService,sans-serif" font-weight="400" font-size="16" transform="translate(1121.78 837)">用<tspan font-size="16" x="0" y="19">户</tspan><tspan font-size="16" x="0" y="38">管</tspan><tspan font-size="16" x="0" y="58">理</tspan></text><rect x="1177.5" y="791.5" width="25" height="138" stroke="#000000" stroke-width="1.33333" stroke-miterlimit="8" fill="#FFFFFF"/><text font-family="DengXian,DengXian_MSFontService,sans-serif" font-weight="400" font-size="16" transform="translate(1181.44 837)">系<tspan font-size="16" x="0" y="19">统</tspan><tspan font-size="16" x="0" y="38">后</tspan><tspan font-size="16" x="0" y="58">台</tspan></text><rect x="1236.5" y="791.5" width="26" height="138" stroke="#000000" stroke-width="1.33333" stroke-miterlimit="8" fill="#FFFFFF"/><text font-family="DengXian,DengXian_MSFontService,sans-serif" font-weight="400" font-size="16" transform="translate(1241.1 837)">数<tspan font-size="16" x="0" y="19">据</tspan><tspan font-size="16" x="0" y="38">导</tspan><tspan font-size="16" x="0" y="58">出</tspan></text><path d="M1189.83 756.5 1189.83 774.292 1189.5 774.292 1189.83 773.958 1189.83 784.75 1189.17 784.75 1189.17 773.625 1189.5 773.625 1189.17 773.958 1189.17 756.5ZM1193.5 783.416 1189.5 791.416 1185.5 783.416Z"/><rect x="576.5" y="791.5" width="26" height="138" stroke="#000000" stroke-width="1.33333" stroke-miterlimit="8" fill="#FFFFFF"/><text font-family="DengXian,DengXian_MSFontService,sans-serif" font-weight="400" font-size="16" transform="translate(581.035 817)">生<tspan font-size="16" x="0" y="19">成</tspan><tspan font-size="16" x="0" y="38">接</tspan><tspan font-size="16" x="0" y="58">种</tspan><tspan font-size="16" x="0" y="77">记</tspan><tspan font-size="16" x="0" y="96">录</tspan></text><path d="M548.5 860.167 570.602 860.167 570.602 860.833 548.5 860.833ZM569.269 856.5 577.269 860.5 569.269 864.5Z"/><path d="M76.5001 704.5 1189.55 704.5" stroke="#000000" stroke-width="0.666667" stroke-miterlimit="8" fill="none" fill-rule="evenodd"/><path d="M0-0.333333 11.9094-0.333333 11.9094 0.000209974 11.5761-0.333123 16.4854-0.333123 16.4854 0.333543 11.2427 0.333543 11.2427 0 11.5761 0.333333 0 0.333333ZM15.152-3.99979 23.152 0.000209974 15.152 4.00021Z" transform="matrix(1.83697e-16 1 1 -1.83697e-16 76.5001 704.5)"/><path d="M294.833 704.5 294.833 721.325 294.167 721.325 294.167 704.5ZM298.5 719.991 294.5 727.991 290.5 719.991Z"/><path d="M523.833 704.5 523.833 721.265 523.167 721.265 523.167 704.5ZM527.5 719.931 523.5 727.931 519.5 719.931Z"/><path d="M740.833 704.499 740.871 721.378 740.204 721.379 740.167 704.501ZM744.535 720.036 740.552 728.045 736.535 720.054Z"/><path d="M956.833 704.5 956.834 721.325 956.167 721.325 956.167 704.5ZM960.5 719.991 956.5 727.991 952.5 719.991Z"/><path d="M557.5 681.5 557.662 704.652" stroke="#000000" stroke-width="0.666667" stroke-miterlimit="8" fill="none" fill-rule="evenodd"/><path d="M0.333162-0.0106744 0.872325 16.8173 0.206 16.8387-0.333162 0.0106744ZM4.49441 15.3672 0.752651 23.4912-3.50148 15.6234Z" transform="matrix(-1 0 0 1 1190.25 704.5)"/></g></svg>